<?xml version="1.0" encoding="UTF-8" standalone="no"?>
<!DOCTYPE svg PUBLIC "-//W3C//DTD SVG 1.1//EN" "http://www.w3.org/Graphics/SVG/1.1/DTD/svg11.dtd">
<svg width="100%" height="100%" viewBox="0 0 124 86" version="1.1" xmlns="http://www.w3.org/2000/svg" xmlns:xlink="http://www.w3.org/1999/xlink" xml:space="preserve" xmlns:serif="http://www.serif.com/" style="fill-rule:evenodd;clip-rule:evenodd;stroke-miterlimit:10;">
    <g transform="matrix(1,0,0,1,-11.8438,-15.8722)">
        <g>
            <path id="XMLID_242_" d="M16.4,45.4C24.6,66.1 40.7,82.5 61.1,91.2C63.5,92.2 66.2,91 67,88.6L67,88.5C67.8,86.3 66.8,83.8 64.6,82.9C46.4,75.2 32,60.5 24.7,42.1C21.9,43.2 19.2,44.3 16.4,45.4Z" style="fill:rgb(183,141,114);fill-rule:nonzero;"/>
            <clipPath id="_clip1">
                <path d="M16.4,45.4C24.6,66.1 40.7,82.5 61.1,91.2C63.5,92.2 66.2,91 67,88.6L67,88.5C67.8,86.3 66.8,83.8 64.6,82.9C46.4,75.2 32,60.5 24.7,42.1C21.9,43.2 19.2,44.3 16.4,45.4Z"/>
            </clipPath>
            <g clip-path="url(#_clip1)">
                <path d="M29.6,49L19.8,55.7L46.2,89C46.2,89 53.3,88.6 53.2,88.2C53.1,87.8 48.5,68.5 48.5,68.5L29.6,49Z" style="fill:rgb(237,237,237);fill-rule:nonzero;"/>
            </g>
            <clipPath id="_clip2">
                <path d="M16.4,45.4C24.6,66.1 40.7,82.5 61.1,91.2C63.5,92.2 66.2,91 67,88.6L67,88.5C67.8,86.3 66.8,83.8 64.6,82.9C46.4,75.2 32,60.5 24.7,42.1C21.9,43.2 19.2,44.3 16.4,45.4Z"/>
            </clipPath>
            <g clip-path="url(#_clip2)">
                <path d="M34.3,51.4L21.1,61.2L59,99.4L76.2,87.4L34.3,51.4Z" style="fill:rgb(60,60,59);fill-rule:nonzero;"/>
            </g>
        </g>
        <path d="M26,45.1C23.4,42.5 29.4,36.5 27.4,35.1C25.3,33.7 23.9,37.5 23.3,37.1C22.7,36.7 22.5,30.9 20.1,31.2C17.7,31.5 20.9,36.8 20.1,37C19.3,37.2 16.7,31.2 14.9,32.2C13,33.2 17.7,39.2 16.9,39.5C16.1,39.8 12.5,36.1 11.9,37.9C11.3,39.7 15.7,42.7 15.9,43.4C16.1,44.1 16.5,45.4 16.5,45.4C16.5,45.4 28.2,49 26,45.1Z" style="fill:rgb(183,141,114);fill-rule:nonzero;"/>
        <g>
            <path id="XMLID_241_" d="M122.2,29.1C118.8,52.7 105.4,73.6 85.5,86.7C83.9,84.2 82.2,81.7 80.6,79.2C98.4,67.6 110.3,48.9 113.4,27.9C116.3,28.3 119.3,28.7 122.2,29.1Z" style="fill:rgb(183,141,114);fill-rule:nonzero;"/>
            <clipPath id="_clip3">
                <path d="M122.2,29.1C118.8,52.7 105.4,73.6 85.5,86.7C83.9,84.2 82.2,81.7 80.6,79.2C98.4,67.6 110.3,48.9 113.4,27.9C116.3,28.3 119.3,28.7 122.2,29.1Z"/>
            </clipPath>
            <g clip-path="url(#_clip3)">
                <path d="M110.1,35.7L121.2,39.9L103.2,78.4C103.2,78.4 96.2,79.6 96.2,79.3C96.2,79 96.2,59 96.2,59L110.1,35.7Z" style="fill:rgb(237,237,237);fill-rule:nonzero;"/>
            </g>
            <clipPath id="_clip4">
                <path d="M122.2,29.1C118.8,52.7 105.4,73.6 85.5,86.7C83.9,84.2 82.2,81.7 80.6,79.2C98.4,67.6 110.3,48.9 113.4,27.9C116.3,28.3 119.3,28.7 122.2,29.1Z"/>
            </clipPath>
            <g clip-path="url(#_clip4)">
                <path d="M106.1,39.1L121.3,45.6L93.2,91.5L73.8,83.8L106.1,39.1Z" style="fill:rgb(60,60,59);fill-rule:nonzero;"/>
            </g>
        </g>
        <path d="M112.8,31.1C114.8,28 107.5,23.5 109.2,21.7C110.9,19.9 113.1,23.2 113.6,22.7C114.1,22.2 113,16.5 115.3,16.2C117.6,15.9 115.8,21.8 116.6,21.8C117.4,21.8 118.5,15.4 120.6,15.9C122.7,16.4 119.5,23.4 120.4,23.5C121.3,23.6 123.8,19.2 124.9,20.8C126,22.4 122.3,26.3 122.3,27.1C122.3,27.8 122.2,29.2 122.2,29.2C122.2,29.2 111.5,35.3 112.8,31.1Z" style="fill:rgb(183,141,114);fill-rule:nonzero;"/>
        <path d="M99.2,91.4L67.6,100.2C65.1,100.9 62.4,99.4 61.7,96.9L54.6,71.4C53.9,68.9 55.4,66.2 57.9,65.5L89.5,56.7C92,56 94.7,57.5 95.4,60L102.5,85.5C103.2,88.1 101.7,90.7 99.2,91.4Z" style="fill:rgb(217,82,151);fill-rule:nonzero;"/>
        <path id="XMLID_240_" d="M110.8,103.7L101.1,70.9C99.5,65.3 92.8,62.3 86,64.2L65.1,70C58.3,71.9 54.1,78 55.7,83.6L60.8,103.7L110.8,103.7Z" style="fill:rgb(236,236,236);fill-rule:nonzero;"/>
        <path d="M77.7,76.5C73.5,77.7 69.2,75.2 68,71L66.6,66.1L81.8,62L83.2,66.9C84.3,71 81.9,75.4 77.7,76.5Z" style="fill:rgb(164,126,99);fill-rule:nonzero;"/>
        <path d="M91.1,56.9C93.5,57.8 99.4,57.9 100.3,55.6C101.2,53.2 96.8,49.3 94.4,48.4C92,47.5 89.3,48.6 88.4,51C87.6,53.2 88.8,55.9 91.1,56.9Z" style="fill:rgb(61,35,34);fill-rule:nonzero;"/>
        <path d="M89.1,53.4L90,50C90.2,49.2 89.7,48.4 89,48.2L88.1,48C87.3,47.8 86.5,48.3 86.3,49L85.4,52.4C85.2,53.2 85.7,54 86.4,54.2L87.2,54.4C88,54.7 88.8,54.2 89.1,53.4Z" style="fill:rgb(229,108,166);fill-rule:nonzero;"/>
        <path d="M56,66.7C54.5,68.7 49.4,71.9 47.4,70.3C45.4,68.8 47.1,63.1 48.6,61.1C50.1,59.1 53,58.7 55.1,60.2C57.1,61.8 57.5,64.7 56,66.7Z" style="fill:rgb(61,35,34);fill-rule:nonzero;"/>
        <path d="M56,62.7L53.5,60.3C52.9,59.7 52.9,58.8 53.5,58.2L54.1,57.6C54.7,57 55.6,57 56.2,57.6L58.7,60C59.3,60.6 59.3,61.5 58.7,62.1L58,62.6C57.5,63.2 56.6,63.2 56,62.7Z" style="fill:rgb(229,108,166);fill-rule:nonzero;"/>
        <path d="M87.7,47.2L54.4,56.5C53.4,56.8 52.4,56.3 52.1,55.4L48.8,43.8C46.2,34.6 52.4,24.7 62.6,21.9C72.8,19.1 83.2,24.3 85.7,33.5L89,45C89.3,45.9 88.7,46.9 87.7,47.2Z" style="fill:rgb(61,35,34);fill-rule:nonzero;"/>
        <g transform="matrix(0.963,-0.2695,0.2695,0.963,-12.5482,16.1352)">
            <circle cx="52.5" cy="53.8" r="4.7" style="fill:rgb(169,127,97);"/>
        </g>
        <path d="M53.4,55.1C53.3,55.2 53.2,55.2 53.1,55.2L50.1,53.1C50,53 50,52.9 50,52.8C50.1,52.7 50.2,52.7 50.3,52.7L53.3,54.8C53.5,54.9 53.5,55 53.4,55.1Z" style="fill:rgb(96,72,56);fill-rule:nonzero;stroke:rgb(96,72,56);stroke-width:0.46px;"/>
        <path d="M50.7,55.8C50.8,55.9 51,55.8 51,55.7L52.7,52.4C52.8,52.3 52.7,52.1 52.6,52.1C52.5,52 52.3,52.1 52.3,52.2L50.6,55.5C50.6,55.6 50.6,55.7 50.7,55.8Z" style="fill:rgb(96,72,56);fill-rule:nonzero;stroke:rgb(96,72,56);stroke-width:0.46px;"/>
        <g transform="matrix(0.963,-0.2695,0.2695,0.963,-8.5702,25.3045)">
            <circle cx="87.9" cy="43.9" r="4.7" style="fill:rgb(169,127,97);"/>
        </g>
        <path d="M87.8,45.5C87.9,45.6 88.1,45.5 88.1,45.4L89.6,42C89.7,41.9 89.6,41.7 89.5,41.7C89.4,41.6 89.2,41.7 89.2,41.8L87.7,45.2C87.6,45.3 87.7,45.4 87.8,45.5Z" style="fill:rgb(96,72,56);fill-rule:nonzero;stroke:rgb(96,72,56);stroke-width:0.46px;"/>
        <path d="M90.4,44.7C90.3,44.8 90.2,44.8 90.1,44.8L86.9,42.9C86.8,42.8 86.8,42.7 86.8,42.6C86.9,42.5 87,42.5 87.1,42.5L90.3,44.4C90.4,44.4 90.5,44.6 90.4,44.7Z" style="fill:rgb(96,72,56);fill-rule:nonzero;stroke:rgb(96,72,56);stroke-width:0.46px;"/>
        <g>
            <path id="XMLID_239_" d="M75,66.1C65.8,68.7 56.2,63.5 53.7,54.6L48.8,37.1L82.3,27.7L87.2,45.2C89.7,54.1 84.2,63.5 75,66.1Z" style="fill:rgb(183,141,114);fill-rule:nonzero;"/>
            <g transform="matrix(0.963,-0.2695,0.2695,0.963,-5.0883,23.9724)">
                <clipPath id="_clip5">
                    <path d="M75,66.1C65.8,68.7 56.2,63.5 53.7,54.6L48.8,37.1L82.3,27.7L87.2,45.2C89.7,54.1 84.2,63.5 75,66.1Z"/>
                </clipPath>
                <g clip-path="url(#_clip5)">
                    <circle cx="84.8" cy="30.5" r="1.1" style="fill:rgb(40,22,21);"/>
                </g>
            </g>
        </g>
        <g transform="matrix(0.963,-0.2695,0.2695,0.963,-11.9796,18.8405)">
            <ellipse cx="62.6" cy="53" rx="1.2" ry="1.9" style="fill:rgb(29,29,27);"/>
        </g>
        <g transform="matrix(0.963,-0.2695,0.2695,0.963,-10.1924,22.9601)">
            <ellipse cx="78.5" cy="48.6" rx="1.2" ry="1.9" style="fill:rgb(29,29,27);"/>
        </g>
        <path d="M59.5,49C60.3,48.3 61.4,48.1 62.5,47.9C63.1,47.8 62.9,46.8 62.2,46.9C61,47.2 59.8,47.5 58.8,48.3C58.3,48.7 59,49.4 59.5,49Z" style="fill:rgb(61,35,34);fill-rule:nonzero;"/>
        <path d="M79.4,42.5C78.2,42.3 77,42.7 75.9,43.1C75.3,43.3 75.5,44.3 76.2,44.1C77.3,43.7 78.3,43.4 79.5,43.5C80,43.6 80,42.6 79.4,42.5Z" style="fill:rgb(61,35,34);fill-rule:nonzero;"/>
        <g transform="matrix(0.9904,-0.138,0.138,0.9904,-6.5903,11.7604)">
            <ellipse cx="81.5" cy="53.4" rx="2.6" ry="1.6" style="fill:rgb(157,118,92);"/>
        </g>
        <g transform="matrix(0.9182,-0.3961,0.3961,0.9182,-18.1428,29.5774)">
            <ellipse cx="62.5" cy="58.7" rx="2.6" ry="1.6" style="fill:rgb(157,118,92);"/>
        </g>
        <path d="M56,45.3L56.4,41.6C56.4,41.4 56.7,41.3 56.8,41.5L59,44.4L56,45.3Z" style="fill:rgb(183,141,114);fill-rule:nonzero;"/>
        <path d="M54.1,53.2C53.5,53.4 52.9,53 52.7,52.4L48.6,37.8C48.4,37.2 48.8,36.6 49.4,36.4C50,36.2 50.6,36.6 50.8,37.2L54.9,51.8C55.1,52.5 54.7,53.1 54.1,53.2Z" style="fill:rgb(61,35,34);fill-rule:nonzero;"/>
        <path d="M85.2,41.7C84.6,41.9 84,41.5 83.8,40.9L82.1,34.8C81.9,34.2 82.3,33.6 82.9,33.4C83.5,33.2 84.1,33.6 84.3,34.2L86,40.3C86.1,40.9 85.8,41.5 85.2,41.7Z" style="fill:rgb(61,35,34);fill-rule:nonzero;"/>
        <circle cx="51.6" cy="58.1" r="1.2" style="fill:rgb(255,207,2);"/>
        <circle cx="89.9" cy="47.4" r="1.2" style="fill:rgb(255,207,2);"/>
        <path d="M48.6,37C48.6,37 66.4,49.4 87.1,44.2L82.6,27.4L48.6,37Z" style="fill:rgb(61,35,34);fill-rule:nonzero;"/>
        <path d="M69.1,48C69.8,49.2 70.4,50.4 71.1,51.5C71.3,51.9 72,52.7 71.9,53.2C71.7,53.8 70.4,53.7 69.8,53.7C69.3,53.7 69.3,54.5 69.8,54.5C70.6,54.5 72.9,54.6 73,53.4C73,52.7 72,51.6 71.7,51C71.1,49.9 70.4,48.8 69.8,47.7C69.5,47.2 68.8,47.6 69.1,48Z" style="fill:rgb(96,72,56);fill-rule:nonzero;"/>
        <g>
            <path id="XMLID_238_" d="M76.9,55.2C77.6,57.6 75.9,60.1 73.1,60.9C70.3,61.7 67.7,60.3 67,58L76.9,55.2Z" style="fill:rgb(29,29,27);fill-rule:nonzero;"/>
            <clipPath id="_clip6">
                <path d="M76.9,55.2C77.6,57.6 75.9,60.1 73.1,60.9C70.3,61.7 67.7,60.3 67,58L76.9,55.2Z"/>
            </clipPath>
            <g clip-path="url(#_clip6)">
                <path d="M75.7,56.9L68.9,58.8C68.6,58.9 68.2,58.7 68.1,58.4L67.8,57.3L75.8,55L76.1,56.1C76.2,56.4 76,56.8 75.7,56.9Z" style="fill:white;fill-rule:nonzero;"/>
            </g>
            <g transform="matrix(0.963,-0.2695,0.2695,0.963,-14.0052,21.6117)">
                <clipPath id="_clip7">
                    <path d="M76.9,55.2C77.6,57.6 75.9,60.1 73.1,60.9C70.3,61.7 67.7,60.3 67,58L76.9,55.2Z"/>
                </clipPath>
                <g clip-path="url(#_clip7)">
                    <ellipse cx="71.7" cy="61.8" rx="3.5" ry="2" style="fill:rgb(236,127,176);"/>
                </g>
            </g>
        </g>
        <path d="M75.4,103.9L60.8,103.7L55.2,82.4C53.8,77.5 56.7,72.3 61.7,70.9L66,69.7L75.4,103.9Z" style="fill:rgb(60,60,59);fill-rule:nonzero;"/>
        <path d="M97.6,103.9L110.9,103.7L101.7,69.8C100.3,64.7 95,61.7 89.9,63.1L86.5,64L97.6,103.9Z" style="fill:rgb(60,60,59);fill-rule:nonzero;"/>
        <path d="M67.5,103.9L60.8,103.7L52.9,75.5C52.6,74.4 53.2,73.3 54.3,73L58.5,71.8L67.5,103.9Z" style="fill:rgb(229,108,166);fill-rule:nonzero;"/>
        <path d="M107.4,102.2C109.1,101.7 110.1,99.9 109.6,98.3L99.6,62.5C99.3,61.4 98.2,60.8 97.1,61.1L92.9,62.3L103.5,100C104,101.7 105.8,102.7 107.4,102.2Z" style="fill:rgb(229,108,166);fill-rule:nonzero;"/>
        <path d="M66.1,69.8L58.6,81C57.8,82.2 58.1,83.4 59.4,84.1L71.6,90.3L66.1,69.8Z" style="fill:rgb(29,29,27);fill-rule:nonzero;"/>
        <path d="M68.8,80L63,90.5C62.4,91.6 62.7,92.9 63.8,93.6L74.4,100.3L68.8,80Z" style="fill:rgb(29,29,27);fill-rule:nonzero;"/>
        <path d="M86.5,64.1L98.8,69.8C100.1,70.4 100.5,71.6 99.7,72.8L92.5,84.5L86.5,64.1Z" style="fill:rgb(29,29,27);fill-rule:nonzero;"/>
        <path d="M89.1,73.5L99.7,80.3C100.8,80.9 101.2,82.2 100.6,83.3L95,94.4L89.1,73.5Z" style="fill:rgb(29,29,27);fill-rule:nonzero;"/>
        <circle cx="91.5" cy="70.7" r="2" style="fill:rgb(217,38,64);"/>
        <circle cx="92.8" cy="75.6" r="1.5" style="fill:white;"/>
        <circle cx="95.8" cy="73.1" r="1.5" style="fill:rgb(65,186,193);"/>
        <g transform="matrix(0.963,-0.2695,0.2695,0.963,-21.8558,25.8029)">
            <ellipse cx="83" cy="92.5" rx="0.4" ry="0.3" style="fill:rgb(245,245,245);"/>
        </g>
        <path d="M126.1,95.5L84.6,95.5L94.2,64.4C94.5,63.3 95.5,62.6 96.6,62.6L132.7,62.6C134.4,62.6 135.6,64.3 135.1,65.9L126.1,95.5Z" style="fill:rgb(116,116,118);fill-rule:nonzero;"/>
        <path d="M123.5,99.4L69.6,99.4C68.1,99.4 66.8,98.1 66.8,96.6C66.8,95.1 68.1,93.8 69.6,93.8L123.5,93.8C125,93.8 126.3,95.1 126.3,96.6C126.3,98.1 125,99.4 123.5,99.4Z" style="fill:rgb(156,155,155);fill-rule:nonzero;"/>
        <path d="M84.1,99.4L69.6,99.4C68.1,99.4 66.8,98.1 66.8,96.6C66.8,95.1 68.1,93.8 69.6,93.8L84.1,93.8C85.6,93.8 86.9,95.1 86.9,96.6C86.9,98.1 85.6,99.4 84.1,99.4Z" style="fill:rgb(198,198,197);fill-rule:nonzero;"/>
        <circle cx="110.8" cy="78.1" r="4" style="fill:rgb(236,236,236);"/>
    </g>
</svg>
