<?xml version="1.0" encoding="UTF-8" standalone="no"?>
<!DOCTYPE svg PUBLIC "-//W3C//DTD SVG 1.1//EN" "http://www.w3.org/Graphics/SVG/1.1/DTD/svg11.dtd">
<svg width="100%" height="100%" viewBox="0 0 128 120" version="1.1" xmlns="http://www.w3.org/2000/svg" xmlns:xlink="http://www.w3.org/1999/xlink" xml:space="preserve" xmlns:serif="http://www.serif.com/" style="fill-rule:evenodd;clip-rule:evenodd;stroke-miterlimit:10;">
    <g>
        <g>
            <path id="XMLID_237_" d="M84.1,104.4L84,95L35.8,95.3C30.1,95.3 25.5,98.3 25.6,102C25.6,103.5 27.6,104.8 30,104.7L84.1,104.4Z" style="fill:rgb(183,141,114);fill-rule:nonzero;"/>
            <clipPath id="_clip1">
                <path d="M84.1,104.4L84,95L35.8,95.3C30.1,95.3 25.5,98.3 25.6,102C25.6,103.5 27.6,104.8 30,104.7L84.1,104.4Z"/>
            </clipPath>
            <g clip-path="url(#_clip1)">
                <path d="M81.7,91.9L81.7,108.6L51.2,108.6C45.2,108.6 40.3,103.7 40.3,97.7L40.3,96.5C40.3,94 42.4,91.9 44.9,91.9L81.7,91.9Z" style="fill:rgb(237,237,237);fill-rule:nonzero;"/>
            </g>
            <g transform="matrix(5.7165e-11,-1,1,5.7165e-11,-46.6283,153.749)">
                <clipPath id="_clip2">
                    <path d="M84.1,104.4L84,95L35.8,95.3C30.1,95.3 25.5,98.3 25.6,102C25.6,103.5 27.6,104.8 30,104.7L84.1,104.4Z"/>
                </clipPath>
                <g clip-path="url(#_clip2)">
                    <rect x="45.1" y="76.1" width="17" height="48.3" style="fill:rgb(60,60,59);"/>
                </g>
            </g>
        </g>
        <path d="M61.2,94.4L27.4,94.4C24.7,94.4 22.5,92.2 22.5,89.5L22.5,62.2C22.5,59.5 24.7,57.3 27.4,57.3L61.2,57.3C63.9,57.3 66.1,59.5 66.1,62.2L66.1,89.4C66.1,92.1 63.9,94.4 61.2,94.4Z" style="fill:rgb(217,82,151);fill-rule:nonzero;"/>
        <path d="M20.8,126.7L19,126.7C16.3,126.7 14.2,124.5 14.2,121.9L14.2,115.3C14.2,112.6 16.4,110.5 19,110.5L20.8,110.5C23.5,110.5 25.6,112.7 25.6,115.3L25.6,121.9C25.6,124.5 23.4,126.7 20.8,126.7Z" style="fill:rgb(183,141,114);fill-rule:nonzero;"/>
        <g>
            <path id="XMLID_196_" d="M29.6,118.9L14.1,118.9L14.1,79.3C14.1,74 18.5,69.6 23.8,69.6L25.5,69.6C27.7,69.6 29.6,71.4 29.6,73.7L29.6,118.9Z" style="fill:rgb(183,141,114);fill-rule:nonzero;"/>
            <clipPath id="_clip3">
                <path d="M29.6,118.9L14.1,118.9L14.1,79.3C14.1,74 18.5,69.6 23.8,69.6L25.5,69.6C27.7,69.6 29.6,71.4 29.6,73.7L29.6,118.9Z"/>
            </clipPath>
            <g clip-path="url(#_clip3)">
                <path d="M29.5,110.5L12.7,110.5L12.7,80C12.7,74 17.6,69.1 23.6,69.1L24.8,69.1C27.3,69.1 29.4,71.2 29.4,73.7L29.4,110.5L29.5,110.5Z" style="fill:rgb(237,237,237);fill-rule:nonzero;"/>
            </g>
            <clipPath id="_clip4">
                <path d="M29.6,118.9L14.1,118.9L14.1,79.3C14.1,74 18.5,69.6 23.8,69.6L25.5,69.6C27.7,69.6 29.6,71.4 29.6,73.7L29.6,118.9Z"/>
            </clipPath>
            <g clip-path="url(#_clip4)">
                <rect x="12.7" y="68.6" width="17" height="37.8" style="fill:rgb(60,60,59);"/>
            </g>
        </g>
        <path id="XMLID_194_" d="M68.9,142.2L68.9,74.6C68.9,68.6 63,63.7 55.8,63.7L33.3,63.7C26,63.7 20.2,68.6 20.2,74.6L20.2,144L68.9,142.2Z" style="fill:rgb(236,236,236);fill-rule:nonzero;"/>
        <path d="M44,73.6C39.5,73.6 35.9,69.9 35.9,65.5L35.9,60.3L52.1,60.3L52.1,65.5C52.1,70 48.5,73.6 44,73.6Z" style="fill:rgb(164,126,99);fill-rule:nonzero;"/>
        <path d="M62.8,57.8C64.9,59.4 70.7,61.1 72.3,59C73.9,56.9 70.6,51.8 68.5,50.2C66.4,48.6 63.4,49 61.8,51.1C60.3,53.3 60.7,56.3 62.8,57.8Z" style="fill:rgb(61,35,34);fill-rule:nonzero;"/>
        <path d="M61.7,53.8L63.5,50.7C63.9,50 63.7,49.1 63,48.6L62.2,48.1C61.5,47.7 60.6,47.9 60.1,48.6L58.3,51.7C57.9,52.4 58.1,53.3 58.8,53.8L59.6,54.3C60.3,54.8 61.3,54.6 61.7,53.8Z" style="fill:rgb(229,108,166);fill-rule:nonzero;"/>
        <path d="M25.2,57.8C23.1,59.4 17.3,61.1 15.7,59C14.1,56.9 17.4,51.8 19.5,50.2C21.6,48.6 24.6,49 26.2,51.1C27.7,53.3 27.3,56.3 25.2,57.8Z" style="fill:rgb(61,35,34);fill-rule:nonzero;"/>
        <path d="M26.3,53.8L24.5,50.7C24.1,50 24.3,49.1 25,48.6L25.8,48.1C26.5,47.7 27.4,47.9 27.9,48.6L29.7,51.7C30.1,52.4 29.9,53.3 29.2,53.8L28.4,54.3C27.7,54.8 26.7,54.6 26.3,53.8Z" style="fill:rgb(229,108,166);fill-rule:nonzero;"/>
        <path d="M62,47.3L26.4,47.3C25.3,47.3 24.5,46.5 24.5,45.5L24.5,33.1C24.5,23.2 33.4,15.2 44.2,15.2C55.1,15.2 63.9,23.3 63.9,33.1L63.9,45.5C64,46.5 63.1,47.3 62,47.3Z" style="fill:rgb(61,35,34);fill-rule:nonzero;"/>
        <circle cx="25.3" cy="44.1" r="4.8" style="fill:rgb(169,127,97);"/>
        <path d="M25.9,45.7C25.8,45.8 25.6,45.8 25.6,45.7L23.2,42.8C23.1,42.7 23.1,42.5 23.2,42.5C23.3,42.4 23.5,42.4 23.5,42.5L25.9,45.4C26,45.4 26,45.6 25.9,45.7Z" style="fill:rgb(96,72,56);fill-rule:nonzero;stroke:rgb(96,72,56);stroke-width:0.47px;"/>
        <path d="M23,45.6C23.1,45.7 23.2,45.7 23.3,45.6L25.9,42.8C26,42.7 26,42.6 25.9,42.5C25.8,42.4 25.7,42.4 25.6,42.5L23,45.2C22.9,45.3 22.9,45.5 23,45.6Z" style="fill:rgb(96,72,56);fill-rule:nonzero;stroke:rgb(96,72,56);stroke-width:0.47px;"/>
        <circle cx="63.2" cy="44.1" r="4.8" style="fill:rgb(169,127,97);"/>
        <path d="M62.6,45.7C62.7,45.8 62.9,45.8 62.9,45.7L65.3,42.8C65.4,42.7 65.4,42.5 65.3,42.5C65.2,42.4 65,42.4 65,42.5L62.6,45.4C62.5,45.4 62.5,45.6 62.6,45.7Z" style="fill:rgb(96,72,56);fill-rule:nonzero;stroke:rgb(96,72,56);stroke-width:0.47px;"/>
        <path d="M65.4,45.6C65.3,45.7 65.2,45.7 65.1,45.6L62.5,42.8C62.4,42.7 62.4,42.6 62.5,42.5C62.6,42.4 62.7,42.4 62.8,42.5L65.4,45.3C65.5,45.3 65.5,45.5 65.4,45.6Z" style="fill:rgb(96,72,56);fill-rule:nonzero;stroke:rgb(96,72,56);stroke-width:0.47px;"/>
        <g>
            <path id="XMLID_193_" d="M44.2,62.5C34.3,62.5 26.3,54.7 26.3,45.2L26.3,26.5L62.2,26.5L62.2,45.2C62.1,54.7 54.1,62.5 44.2,62.5Z" style="fill:rgb(183,141,114);fill-rule:nonzero;"/>
        </g>
        <ellipse cx="35.6" cy="46.2" rx="1.2" ry="2" style="fill:rgb(29,29,27);"/>
        <ellipse cx="52.6" cy="46.2" rx="1.2" ry="2" style="fill:rgb(29,29,27);"/>
        <path d="M33.6,41.3C34.6,40.9 35.8,40.9 36.9,41C37.6,41 37.6,40 36.9,39.9C35.6,39.8 34.3,39.8 33.1,40.3C32.5,40.7 33,41.6 33.6,41.3Z" style="fill:rgb(61,35,34);fill-rule:nonzero;"/>
        <path d="M55.3,40.4C54.1,39.9 52.8,39.9 51.5,40C50.8,40 50.8,41.1 51.5,41.1C52.6,41 53.7,41 54.8,41.4C55.3,41.6 55.9,40.7 55.3,40.4Z" style="fill:rgb(61,35,34);fill-rule:nonzero;"/>
        <g transform="matrix(0.134,-0.991,0.991,0.134,-4.3453,98.5281)">
            <ellipse cx="54.2" cy="51.8" rx="1.7" ry="2.7" style="fill:rgb(157,118,92);"/>
        </g>
        <g transform="matrix(0.991,-0.134,0.134,0.991,-6.6299,5.0122)">
            <ellipse cx="33.9" cy="51.8" rx="2.7" ry="1.7" style="fill:rgb(157,118,92);"/>
        </g>
        <path d="M31.1,36.7L32.5,33.2C32.6,33 32.8,33 32.9,33.2L34.3,36.7L31.1,36.7Z" style="fill:rgb(183,141,114);fill-rule:nonzero;"/>
        <path d="M27.1,44C26.5,44 25.9,43.5 25.9,42.8L25.9,27.3C25.9,26.7 26.4,26.1 27.1,26.1C27.7,26.1 28.3,26.6 28.3,27.3L28.3,42.9C28.3,43.5 27.7,44 27.1,44Z" style="fill:rgb(61,35,34);fill-rule:nonzero;"/>
        <path d="M61.1,41.1C60.5,41.1 59.9,40.6 59.9,39.9L59.9,33.4C59.9,32.8 60.4,32.2 61.1,32.2C61.7,32.2 62.3,32.7 62.3,33.4L62.3,40C62.3,40.6 61.7,41.1 61.1,41.1Z" style="fill:rgb(61,35,34);fill-rule:nonzero;"/>
        <circle cx="23.2" cy="48.1" r="1.3" style="fill:rgb(255,207,2);"/>
        <circle cx="64.2" cy="48.1" r="1.3" style="fill:rgb(255,207,2);"/>
        <path d="M26.1,26.4C26.1,26.4 40.3,43.6 62.2,44.2L62.4,26.3L26.1,26.4Z" style="fill:rgb(61,35,34);fill-rule:nonzero;"/>
        <path d="M43.4,43C43.7,44.4 44.1,45.7 44.4,47.1C44.5,47.5 45,48.6 44.7,49C44.3,49.5 43,49.1 42.5,48.9C42,48.7 41.8,49.5 42.3,49.7C43.1,50 45.4,50.6 45.8,49.4C46,48.7 45.3,47.3 45.2,46.7C44.9,45.4 44.6,44.1 44.2,42.9C44,42.2 43.3,42.5 43.4,43Z" style="fill:rgb(96,72,56);fill-rule:nonzero;"/>
        <g>
            <path id="XMLID_192_" d="M49.2,52.3C49.2,54.8 46.8,56.9 43.9,56.9C41,56.9 38.6,54.9 38.6,52.3L49.2,52.3Z" style="fill:rgb(29,29,27);fill-rule:nonzero;"/>
            <clipPath id="_clip5">
                <path d="M49.2,52.3C49.2,54.8 46.8,56.9 43.9,56.9C41,56.9 38.6,54.9 38.6,52.3L49.2,52.3Z"/>
            </clipPath>
            <g clip-path="url(#_clip5)">
                <path d="M47.5,53.6L40.2,53.6C39.8,53.6 39.5,53.3 39.5,52.9L39.5,51.8L48.1,51.8L48.1,52.9C48.1,53.3 47.8,53.6 47.5,53.6Z" style="fill:white;fill-rule:nonzero;"/>
            </g>
            <clipPath id="_clip6">
                <path d="M49.2,52.3C49.2,54.8 46.8,56.9 43.9,56.9C41,56.9 38.6,54.9 38.6,52.3L49.2,52.3Z"/>
            </clipPath>
            <g clip-path="url(#_clip6)">
                <ellipse cx="42.1" cy="57.4" rx="3.6" ry="2" style="fill:rgb(236,127,176);"/>
            </g>
        </g>
        <path d="M31.7,126.7L22.5,126.7C21.1,126.7 20.1,125.6 20.1,124.3L20.1,74.9C20.1,68.7 25.1,63.7 31.3,63.7L34.3,63.7L34.3,124.3C34.1,125.6 33,126.7 31.7,126.7Z" style="fill:rgb(60,60,59);fill-rule:nonzero;"/>
        <path d="M58.4,126.7L67.3,126.7C68.6,126.7 69.6,125.7 69.6,124.4L69.6,74.7C69.6,68.7 64.7,63.8 58.7,63.8L56.1,63.8L56.1,124.5C56.1,125.7 57.1,126.7 58.4,126.7Z" style="fill:rgb(60,60,59);fill-rule:nonzero;"/>
        <path d="M23,107.4C21.2,107.4 19.7,105.9 19.7,104.1L19.7,65.8C19.7,64.7 20.6,63.7 21.8,63.7L26.3,63.7L26.3,104C26.3,105.9 24.8,107.4 23,107.4Z" style="fill:rgb(229,108,166);fill-rule:nonzero;"/>
        <path d="M66.4,107.4C68.2,107.4 69.7,105.9 69.7,104.1L69.7,65.8C69.7,64.7 68.8,63.7 67.6,63.7L63.1,63.7L63.1,104C63.1,105.9 64.6,107.4 66.4,107.4Z" style="fill:rgb(229,108,166);fill-rule:nonzero;"/>
        <rect x="56.1" y="90.2" width="0.9" height="33.1" style="fill:rgb(198,198,197);"/>
        <rect x="33.3" y="90.2" width="0.9" height="33.1" style="fill:rgb(198,198,197);"/>
        <path d="M34.4,63.7L23.8,72.7C22.7,73.6 22.7,75 23.7,76L34.1,85.6L34.4,63.7Z" style="fill:rgb(29,29,27);fill-rule:nonzero;"/>
        <path d="M34.3,74.6L25.6,83.4C24.7,84.3 24.6,85.7 25.5,86.7L34.2,96.3L34.3,74.6Z" style="fill:rgb(29,29,27);fill-rule:nonzero;"/>
        <path d="M56.1,63.7L66.7,72.7C67.8,73.6 67.8,75 66.8,76L56.4,85.6L56.1,63.7Z" style="fill:rgb(29,29,27);fill-rule:nonzero;"/>
        <path d="M56.1,73.7L64.7,83.3C65.6,84.2 65.7,85.6 64.8,86.6L56.1,96.2L56.1,73.7Z" style="fill:rgb(29,29,27);fill-rule:nonzero;"/>
        <circle cx="59.3" cy="71.6" r="2.1" style="fill:rgb(217,38,64);"/>
        <circle cx="59.3" cy="76.9" r="1.5" style="fill:white;"/>
        <circle cx="62.9" cy="75.2" r="1.5" style="fill:rgb(65,186,193);"/>
        <path d="M65.9,109.3C65.9,109.3 65.4,115.5 60.7,118.1" style="fill:none;stroke:rgb(198,198,197);stroke-width:0.76px;"/>
        <path d="M24.2,109.3C24.2,109.3 24.7,115.5 29.4,118.1" style="fill:none;stroke:rgb(198,198,197);stroke-width:0.76px;"/>
        <path d="M109.2,92.9L65.5,92.9L75.6,60.2C75.9,59.1 77,58.3 78.2,58.3L116.2,58.3C118,58.3 119.3,60 118.8,61.8L109.2,92.9Z" style="fill:rgb(116,116,118);fill-rule:nonzero;"/>
        <path d="M108,97L51.3,97C49.7,97 48.4,95.7 48.4,94.1C48.4,92.5 49.7,91.2 51.3,91.2L108,91.2C109.6,91.2 110.9,92.5 110.9,94.1C111,95.6 109.7,97 108,97Z" style="fill:rgb(156,155,155);fill-rule:nonzero;"/>
        <path d="M65,97L49.7,97C48.1,97 46.8,95.7 46.8,94.1C46.8,92.5 48.1,91.2 49.7,91.2L65,91.2C66.6,91.2 67.9,92.5 67.9,94.1C67.9,95.6 66.6,97 65,97Z" style="fill:rgb(198,198,197);fill-rule:nonzero;"/>
        <circle cx="93.1" cy="74.5" r="4.2" style="fill:rgb(236,236,236);"/>
        <path d="M84.1,104.4C85.5,104.4 95,104.2 97.2,103.7C99.5,103.2 100.3,101.8 101.2,99.1C102.1,96.3 102,90.6 100.3,90C98.6,89.4 97.6,95.8 96.7,95.6C95.8,95.4 95.3,88.3 93.2,88.7C91.1,89.1 92.9,95 92,95.1C91.1,95.1 89.1,90 87.1,90.5C85.1,91 89.2,97.2 88.1,97.1C87,96.9 84,97 84,97L84.1,104.4Z" style="fill:rgb(183,141,114);fill-rule:nonzero;"/>
    </g>
</svg>
