<?xml version="1.0" encoding="UTF-8" standalone="no"?>
<!DOCTYPE svg PUBLIC "-//W3C//DTD SVG 1.1//EN" "http://www.w3.org/Graphics/SVG/1.1/DTD/svg11.dtd">
<svg width="100%" height="100%" viewBox="0 0 204 185" version="1.1" xmlns="http://www.w3.org/2000/svg" xmlns:xlink="http://www.w3.org/1999/xlink" xml:space="preserve" style="fill-rule:evenodd;clip-rule:evenodd;stroke-linejoin:round;stroke-miterlimit:1.41421;">
    <g id="Ninja.-Female.-2.-OK.-Hand" transform="matrix(1,0,0,1,-533.81,-361.651)">
        <clipPath id="_clip1">
            <rect x="534.132" y="362.591" width="202.948" height="184.105"/>
        </clipPath>
        <g clip-path="url(#_clip1)">
            <path d="M714.725,421.118C713.975,422.217 713.775,423.417 714.075,424.716C715.125,429.164 715.624,433.413 715.575,437.411C715.575,437.461 715.575,437.461 715.575,437.511C715.475,437.461 715.375,437.461 715.225,437.411C714.825,430.714 712.726,425.116 708.877,420.618C707.728,419.268 706.478,418.569 705.129,418.519C703.929,418.469 702.83,418.919 701.78,419.868C700.83,420.768 700.231,421.867 700.031,423.117C699.781,424.466 700.081,425.666 700.88,426.715C702.68,429.164 703.929,431.164 704.579,432.813C705.029,433.913 705.329,435.112 705.579,436.362C705.579,436.412 705.579,436.462 705.579,436.512C705.429,436.462 705.279,436.462 705.129,436.512C698.781,436.512 694.433,438.361 692.084,442.109C689.735,445.758 689.135,449.157 690.385,452.255C691.184,454.304 693.134,455.304 696.232,455.304C694.983,455.354 693.883,456.104 692.984,457.553C691.884,459.203 691.834,460.952 692.884,462.801C694.733,465.85 697.332,468.149 700.78,469.698C702.63,470.548 704.679,471.098 706.828,471.398C707.078,471.448 707.378,471.448 707.678,471.498C707.428,476.596 706.778,481.294 705.828,485.592L719.623,488.691C720.872,482.643 721.572,475.996 721.722,468.749C722.772,468.199 723.821,467.549 724.871,466.8C728.919,463.901 731.618,460.302 733.018,456.054C733.068,455.904 733.068,455.804 733.117,455.704C734.117,452.905 735.017,449.257 735.766,444.709C736.516,440.16 736.916,435.912 737.066,431.864C737.166,430.114 736.716,428.715 735.716,427.715C734.817,426.866 733.667,426.416 732.268,426.366C730.918,426.316 729.719,426.716 728.769,427.515C727.72,428.315 727.17,429.365 727.17,430.714C727.17,433.563 726.87,437.062 726.22,441.16C726.17,441.31 726.17,441.46 726.17,441.61C726.12,441.66 726.12,441.71 726.12,441.76C725.97,441.66 725.87,441.56 725.72,441.51C725.77,441.36 725.77,441.26 725.82,441.11C726.67,434.513 726.07,428.365 723.921,422.618C723.271,420.968 722.322,419.819 721.072,419.169C719.923,418.619 718.773,418.569 717.524,419.019C716.324,419.369 715.374,420.069 714.725,421.118ZM708.577,447.007C709.927,448.007 710.876,449.356 711.326,451.056C711.776,452.705 711.676,454.254 711.126,455.704C710.477,457.303 709.277,458.453 707.628,459.152C705.179,460.102 703.179,459.502 701.63,457.303C700.68,455.904 698.931,455.254 696.482,455.304C698.981,455.204 700.231,453.605 700.231,450.456C700.181,447.707 701.48,446.208 704.079,445.858C705.728,445.658 707.228,446.058 708.577,447.007Z" style="fill:rgb(194,131,98);fill-rule:nonzero;"/>
            <path d="M640.255,387.531C637.906,382.933 634.507,378.685 630.059,374.836C620.663,366.689 609.317,362.591 595.972,362.591L595.872,362.591C584.577,362.591 574.681,365.54 566.184,371.438C564.635,372.487 563.186,373.587 561.736,374.836C552.29,383.033 547.592,392.929 547.592,404.524L547.592,413.171L547.642,413.171L547.742,433.763C549.091,432.963 550.541,432.463 552.09,432.213L552.09,426.566C554.489,426.816 556.738,426.816 558.787,426.666L561.586,426.216C568.433,424.766 572.732,420.468 574.481,413.271L574.481,427.016C580.828,427.465 586.326,427.265 590.924,426.516C605.818,424.067 615.115,413.571 618.763,395.078C619.813,409.323 626.96,419.769 640.255,426.366C640.305,426.416 640.355,426.416 640.405,426.466L640.405,430.614C642.204,430.864 643.853,431.514 645.353,432.563L645.353,418.969L644.253,418.969L644.253,404.525C644.253,400.076 643.553,395.928 642.154,391.98C641.604,390.43 641.004,388.981 640.255,387.531ZM571.782,413.471L571.732,413.471L571.782,413.471Z" style="fill:rgb(75,28,2);fill-rule:nonzero;"/>
            <path d="M644.253,418.968L645.353,418.969L645.353,432.563C645.752,432.813 646.152,433.113 646.502,433.463C646.752,433.663 646.952,433.863 647.152,434.063C649.601,436.462 650.8,439.36 650.8,442.759C650.8,446.158 649.601,449.057 647.252,451.506C647.002,451.706 646.752,451.905 646.502,452.105C644.703,453.655 642.654,454.554 640.355,454.904L640.305,454.904C640.305,455.604 640.305,456.304 640.255,457.003C640.155,458.453 639.955,459.902 639.655,461.302C638.905,464.8 637.556,468.099 635.557,471.148C635.207,471.698 634.857,472.247 634.457,472.797L634.457,474.447C634.407,478.595 634.807,482.443 635.557,485.942C635.906,487.391 636.306,488.741 636.756,490.09C637.106,491.09 637.456,492.09 637.906,493.039C638.555,494.589 639.355,496.038 640.255,497.387C644.953,504.585 652.5,509.533 662.846,512.182L662.846,423.067C662.846,417.919 661.046,413.571 657.448,409.922C653.799,406.274 649.401,404.475 644.253,404.525L644.253,418.969L644.253,418.968Z" style="fill:rgb(57,18,2);fill-rule:nonzero;"/>
            <path d="M640.405,426.465C640.355,426.416 640.305,426.416 640.255,426.366C626.96,419.768 619.813,409.322 618.763,395.078C615.115,413.571 605.818,424.067 590.924,426.516C586.326,427.265 580.828,427.465 574.481,427.015L574.481,413.271C572.732,420.468 568.433,424.766 561.586,426.216L558.787,426.666C556.738,426.816 554.489,426.816 552.09,426.566L552.09,456.554C552.14,458.153 552.29,459.752 552.59,461.302C553.839,467.749 557.288,473.497 562.986,478.545C563.036,478.545 563.036,478.545 563.086,478.595C563.436,478.845 563.785,479.145 564.185,479.445C564.685,479.894 565.185,480.294 565.735,480.694C566.035,480.894 566.334,481.094 566.634,481.344C569.233,483.193 572.032,484.742 574.981,485.992C576.33,486.542 577.78,487.042 579.279,487.491C580.429,487.841 581.578,488.091 582.778,488.341C583.028,488.391 583.328,488.491 583.577,488.541C584.827,488.791 586.126,488.941 587.426,489.091C589.275,489.291 591.224,489.391 593.174,489.391L599.571,489.391C603.12,489.341 606.468,489.041 609.667,488.391C610.317,488.241 610.966,488.091 611.616,487.941C612.266,487.791 612.966,487.592 613.665,487.442C613.665,487.442 613.715,487.442 613.765,487.442C614.765,487.092 615.765,486.742 616.764,486.392C617.014,486.292 617.314,486.192 617.614,486.042L617.614,485.842L617.664,485.842C617.914,485.742 618.114,485.642 618.313,485.592C620.663,484.493 622.962,483.193 625.111,481.694C625.96,481.094 626.76,480.495 627.56,479.845C630.309,477.596 632.608,475.247 634.457,472.798C634.857,472.248 635.207,471.698 635.557,471.148C637.556,468.1 638.905,464.801 639.655,461.302C639.955,459.903 640.155,458.453 640.255,457.004C640.305,456.304 640.305,455.605 640.305,454.905L640.355,453.605L640.355,430.615L640.405,430.615L640.405,426.516L640.405,426.466L640.405,426.465ZM617.214,438.461C617.214,438.861 617.064,439.21 616.764,439.51C616.414,439.86 616.014,440.01 615.615,440.06L607.218,440.06C606.768,440.01 606.368,439.86 606.068,439.51C605.719,439.21 605.569,438.861 605.569,438.461C605.569,438.011 605.719,437.661 606.068,437.311C606.368,437.011 606.768,436.861 607.218,436.861L615.615,436.861C616.015,436.861 616.414,437.011 616.764,437.311C617.064,437.661 617.214,438.011 617.214,438.461ZM576.13,436.861L584.527,436.861C584.927,436.861 585.327,437.011 585.676,437.311C585.976,437.661 586.126,438.011 586.126,438.461C586.126,438.861 585.976,439.21 585.676,439.51C585.327,439.86 584.927,440.01 584.527,440.06L576.13,440.06C575.68,440.01 575.281,439.86 574.981,439.51C574.631,439.211 574.431,438.861 574.481,438.461C574.431,438.011 574.631,437.661 574.981,437.311C575.281,437.011 575.68,436.862 576.13,436.862L576.13,436.861ZM593.323,436.911C593.973,436.262 594.773,435.912 595.722,435.962C596.672,435.912 597.472,436.262 598.121,436.911C598.771,437.561 599.071,438.361 599.071,439.31L599.071,445.108C599.071,446.058 598.771,446.857 598.121,447.507C597.472,448.157 596.672,448.457 595.722,448.507C594.773,448.457 593.973,448.157 593.323,447.507C592.624,446.857 592.274,446.058 592.274,445.108L592.274,439.31C592.274,438.361 592.624,437.561 593.323,436.911ZM613.315,452.255C612.866,455.604 611.566,458.653 609.367,461.302C608.917,461.801 608.467,462.301 608.018,462.801C604.369,466.4 600.021,468.199 594.973,468.249C590.275,468.199 586.226,466.699 582.778,463.651C582.478,463.351 582.178,463.051 581.878,462.801C581.378,462.301 580.928,461.801 580.529,461.302C578.329,458.653 577.03,455.604 576.58,452.255L613.315,452.255Z" style="fill:rgb(194,131,98);fill-rule:nonzero;"/>
            <path d="M616.764,439.51C617.064,439.21 617.214,438.861 617.214,438.461C617.214,438.011 617.064,437.661 616.764,437.311C616.414,437.011 616.014,436.861 615.615,436.861L607.218,436.861C606.768,436.861 606.368,437.011 606.068,437.311C605.719,437.661 605.569,438.011 605.569,438.461C605.569,438.861 605.719,439.21 606.068,439.51C606.368,439.86 606.768,440.01 607.218,440.06L615.615,440.06C616.015,440.01 616.414,439.86 616.764,439.51Z" style="fill:rgb(75,28,2);fill-rule:nonzero;"/>
            <path d="M584.527,436.861L576.13,436.861C575.68,436.861 575.281,437.011 574.981,437.311C574.631,437.661 574.431,438.011 574.481,438.461C574.431,438.861 574.631,439.21 574.981,439.51C575.281,439.86 575.68,440.01 576.13,440.06L584.527,440.06C584.927,440.01 585.327,439.86 585.676,439.51C585.976,439.211 586.126,438.861 586.126,438.461C586.126,438.011 585.976,437.661 585.676,437.311C585.327,437.011 584.927,436.862 584.527,436.862L584.527,436.861Z" style="fill:rgb(75,28,2);fill-rule:nonzero;"/>
            <path d="M595.722,435.962C594.773,435.912 593.973,436.262 593.323,436.911C592.624,437.561 592.274,438.361 592.274,439.31L592.274,445.108C592.274,446.058 592.624,446.857 593.323,447.507C593.973,448.157 594.773,448.457 595.722,448.507C596.672,448.457 597.472,448.157 598.121,447.507C598.771,446.857 599.071,446.058 599.071,445.108L599.071,439.31C599.071,438.361 598.771,437.561 598.121,436.911C597.472,436.262 596.672,435.912 595.722,435.962Z" style="fill:rgb(140,80,55);fill-rule:nonzero;"/>
            <path d="M609.367,461.302C611.566,458.653 612.866,455.604 613.315,452.255L576.58,452.255C577.03,455.604 578.329,458.653 580.529,461.302C580.928,461.801 581.378,462.301 581.878,462.801C582.178,463.051 582.478,463.351 582.778,463.651C586.226,466.699 590.275,468.199 594.973,468.249C600.021,468.199 604.369,466.4 608.018,462.801C608.467,462.301 608.917,461.801 609.367,461.302Z" style="fill:white;fill-rule:nonzero;"/>
            <path d="M645.353,432.563C643.853,431.513 642.204,430.864 640.405,430.614L640.355,430.614L640.355,454.904C642.654,454.554 644.703,453.655 646.502,452.105C646.752,451.905 647.002,451.705 647.252,451.506C649.601,449.057 650.8,446.158 650.8,442.759C650.8,439.36 649.601,436.462 647.152,434.063C646.952,433.863 646.752,433.663 646.502,433.463C646.152,433.113 645.752,432.813 645.353,432.563Z" style="fill:rgb(140,80,55);fill-rule:nonzero;"/>
            <path d="M640.355,453.605L640.305,454.904L640.355,454.904L640.355,453.605Z" style="fill:rgb(75,28,2);fill-rule:nonzero;"/>
            <path d="M621.512,497.137C621.112,494.588 620.363,492.239 619.213,490.09C618.513,488.791 617.714,487.541 616.764,486.392C615.764,486.741 614.765,487.091 613.765,487.441L613.765,487.741L613.665,487.441C612.966,487.591 612.266,487.791 611.616,487.941C610.966,488.091 610.317,488.241 609.667,488.391L609.667,524.077C610.966,521.927 612.366,520.528 613.815,519.978C616.314,518.979 619.013,520.378 621.862,524.177L621.862,501.136C621.862,500.736 621.862,500.336 621.862,499.936C621.812,498.987 621.662,498.037 621.512,497.137ZM613.815,502.085L613.815,505.484L613.765,505.484L613.715,502.085L613.715,501.486L613.815,502.085Z" style="fill:rgb(31,88,48);fill-rule:nonzero;"/>
            <path d="M613.815,505.484L613.815,502.085L613.715,502.085L613.765,505.484L613.815,505.484Z" style="fill:rgb(44,130,69);fill-rule:nonzero;"/>
            <path d="M613.815,502.085L613.715,501.485L613.715,502.085L613.815,502.085Z" style="fill:rgb(75,28,2);fill-rule:nonzero;"/>
            <path d="M621.862,499.936L621.862,524.176C619.013,520.378 616.314,518.979 613.815,519.978C612.366,520.528 610.966,521.927 609.667,524.077L609.667,613.741L632.858,613.741L632.808,542.719L632.758,542.719L632.758,527.425C632.158,527.275 631.558,527.125 630.908,526.975C630.808,526.925 630.708,526.925 630.659,526.925L630.609,512.981C630.559,512.331 630.509,511.782 630.409,511.232C630.559,511.282 630.758,511.332 630.908,511.382C631.258,511.482 631.608,511.582 631.958,511.682C631.408,509.533 630.559,507.533 629.509,505.634C628.359,503.685 626.96,501.886 625.261,500.236C625.161,500.086 625.061,499.986 624.961,499.936C623.861,498.887 622.712,497.937 621.512,497.138C621.662,498.037 621.812,498.987 621.862,499.936ZM610.117,546.817C610.117,546.717 610.117,546.667 610.167,546.617L610.267,546.717C610.217,546.767 610.167,546.767 610.117,546.817ZM627.91,569.958L627.96,570.458L627.91,570.458L627.91,569.958Z" style="fill:rgb(44,130,69);fill-rule:nonzero;"/>
            <path d="M631.958,511.681C631.608,511.581 631.258,511.481 630.908,511.382C630.758,511.332 630.559,511.282 630.409,511.232C630.509,511.781 630.559,512.331 630.609,512.981L630.659,526.925C630.709,526.925 630.808,526.925 630.908,526.975C631.558,527.125 632.158,527.275 632.758,527.425C639.955,529.075 646.702,530.224 653,530.924C672.842,532.973 688.135,530.074 698.931,522.227C706.128,517.479 711.626,510.782 715.425,502.085C717.174,498.037 718.573,493.589 719.623,488.691L705.828,485.592C704.379,492.039 702.18,497.537 699.231,502.085C696.932,505.534 694.183,508.483 691.034,510.832C683.038,516.03 671.042,517.729 655.049,515.98C648.102,515.18 640.405,513.731 631.958,511.682L631.958,511.681Z" style="fill:rgb(31,88,48);fill-rule:nonzero;"/>
            <path d="M547.742,433.763C547.092,434.112 546.492,434.562 545.942,435.062C545.693,435.262 545.493,435.462 545.243,435.712C542.844,438.061 541.644,440.96 541.644,444.408C541.644,447.807 542.844,450.706 545.243,453.105C545.493,453.305 545.693,453.505 545.942,453.755C547.742,455.304 549.791,456.204 552.09,456.554L552.09,432.213C550.541,432.463 549.091,432.963 547.742,433.763Z" style="fill:rgb(140,80,55);fill-rule:nonzero;"/>
            <path d="M572.232,490.09C570.633,493.039 569.733,496.338 569.583,499.936C569.533,500.136 569.533,500.336 569.533,500.586L569.533,524.476C572.832,520.428 576.13,519.428 579.479,521.428C580.579,522.077 581.678,523.127 582.778,524.476L582.778,511.731L582.778,488.341C581.578,488.091 580.429,487.841 579.279,487.491C577.78,487.041 576.33,486.542 574.981,485.992C573.881,487.241 572.982,488.641 572.232,490.09Z" style="fill:rgb(31,88,48);fill-rule:nonzero;"/>
            <path d="M569.533,501.136C569.533,500.936 569.533,500.736 569.533,500.586C569.083,500.986 568.583,501.386 568.134,501.835C564.235,505.784 561.886,510.332 561.086,515.53L561.086,515.58C561.036,515.78 561.036,515.98 560.986,516.18C560.936,516.43 560.836,516.68 560.787,516.929C560.587,518.079 560.487,519.328 560.487,520.578L560.487,542.719L560.337,542.719L560.287,590.85L560.287,613.741L582.828,613.741L582.828,606.294L582.828,547.617L582.828,543.169L582.778,524.477C581.678,523.127 580.579,522.078 579.479,521.428C576.131,519.429 572.832,520.428 569.533,524.477L569.533,501.136Z" style="fill:rgb(44,130,69);fill-rule:nonzero;"/>
            <path d="M553.739,524.176C553.639,524.276 553.539,524.376 553.439,524.476C552.49,525.626 551.54,526.825 550.691,528.075C545.343,535.422 541.094,544.118 537.946,554.214C537.296,556.364 536.646,558.613 536.096,560.912C532.948,573.257 533.597,583.353 537.946,591.15C538.395,591.899 538.845,592.649 539.345,593.349C541.194,596.498 543.743,599.246 546.892,601.595C548.042,602.445 549.241,603.245 550.591,603.995C551.94,604.744 553.339,605.444 554.839,606.094C556.538,606.843 558.337,607.493 560.287,608.093L560.287,590.85C557.638,589.5 555.489,587.901 553.839,586.052C553.439,585.602 553.09,585.152 552.79,584.702C549.941,579.704 549.541,573.057 551.59,564.76C553.689,556.364 556.588,549.017 560.337,542.719L560.487,542.719L560.487,520.578C560.487,519.329 560.587,518.079 560.787,516.93C560.137,517.479 559.537,518.029 558.887,518.629C557.038,520.378 555.339,522.228 553.739,524.177L553.739,524.176Z" style="fill:rgb(31,88,48);fill-rule:nonzero;"/>
            <path d="M613.665,487.441L613.765,487.741L613.765,487.441C613.715,487.441 613.665,487.441 613.665,487.441Z" style="fill:rgb(140,80,55);fill-rule:nonzero;"/>
            <path d="M609.667,488.391C606.468,489.04 603.12,489.34 599.571,489.39L593.173,489.39C591.224,489.39 589.275,489.29 587.426,489.09C586.126,488.941 584.827,488.791 583.577,488.541C583.327,488.491 583.028,488.391 582.778,488.341L582.778,511.731C583.127,512.081 583.527,512.481 583.977,512.831C587.376,515.58 591.474,516.929 596.272,516.929C601.07,516.929 605.219,515.58 608.667,512.831C609.017,512.481 609.317,512.181 609.667,511.881L609.667,488.391Z" style="fill:rgb(140,80,55);fill-rule:nonzero;"/>
            <path d="M608.667,512.831C605.219,515.58 601.07,516.929 596.272,516.929C591.474,516.929 587.376,515.58 583.977,512.831C583.527,512.481 583.128,512.081 582.778,511.731L582.778,524.476L582.828,543.169C582.978,543.719 583.078,544.219 583.228,544.768C583.327,545.118 583.427,545.468 583.577,545.868C583.777,546.668 584.027,547.467 584.277,548.267C583.777,548.067 583.278,547.867 582.828,547.617L582.828,606.294L609.667,606.294L609.667,524.077L609.667,511.882C609.317,512.181 609.017,512.481 608.667,512.831Z" style="fill:white;fill-rule:nonzero;"/>
        </g>
    </g>
</svg>
