<?xml version="1.0" encoding="UTF-8" standalone="no"?>
<!DOCTYPE svg PUBLIC "-//W3C//DTD SVG 1.1//EN" "http://www.w3.org/Graphics/SVG/1.1/DTD/svg11.dtd">
<svg width="100%" height="100%" viewBox="0 0 253 233" version="1.1" xmlns="http://www.w3.org/2000/svg" xmlns:xlink="http://www.w3.org/1999/xlink" xml:space="preserve" style="fill-rule:evenodd;clip-rule:evenodd;stroke-linejoin:round;stroke-miterlimit:1.41421;">
    <g transform="matrix(1,0,0,1,-3495,-325)">
        <g transform="matrix(1,0,0,1,0,-162)">
            <g id="Ninja-Female-2-Laptop-Sitting" transform="matrix(1,0,0,1,3118.34,381.018)">
                <path d="M618.363,338.451L618.363,338.401C618.114,338.351 617.814,338.351 617.564,338.401L618.363,338.451Z" style="fill:rgb(253,219,218);fill-rule:nonzero;"/>
                <path d="M520.655,147.175C520.433,145.523 520.083,143.902 519.638,142.281C518.208,137.197 515.634,132.271 511.948,127.504C504.162,117.367 493.516,110.947 480.073,108.214L480.01,108.214C468.601,105.895 458.019,106.784 448.231,110.916C446.452,111.647 444.704,112.505 442.956,113.49C438.03,116.255 433.962,119.528 430.753,123.341C426.653,128.172 423.952,133.828 422.649,140.311L422.109,142.917C421.982,143.457 421.855,144.029 421.759,144.601C421.601,145.3 421.473,145.999 421.315,146.73C421.283,146.921 421.219,147.112 421.187,147.334L420.838,149.018L420.901,149.018L417.819,164.145C418.359,164.082 418.868,164.05 419.408,164.082C420.456,164.082 421.442,164.177 422.395,164.368L432.246,164.94C433.613,164.94 434.884,164.813 436.123,164.558C441.367,163.478 445.307,160.173 447.945,154.612L445.085,168.372C451.409,170.12 457.002,171.105 461.801,171.295C477.34,171.867 488.876,163.255 496.408,145.459C494.501,159.982 499.649,171.931 511.82,181.306L510.962,185.532C512.075,185.945 513.123,186.486 514.045,187.185L514.013,187.153L517.191,174.664L520.178,160.109C521.068,155.692 521.227,151.37 520.655,147.175ZM445.149,154.198L445.212,154.262L445.149,154.262L445.149,154.198Z" style="fill:rgb(75,28,2);fill-rule:nonzero;"/>
                <path d="M518.907,199.864C519.574,196.432 518.971,193.255 517.032,190.363C516.873,190.108 516.683,189.854 516.492,189.632C516.174,189.219 515.856,188.837 515.507,188.488C515.062,188.011 514.585,187.566 514.045,187.185C513.123,186.486 512.075,185.945 510.962,185.532L505.751,209.748C508.198,210.002 510.518,209.525 512.647,208.349C512.933,208.191 513.187,208 513.473,207.841C516.365,205.934 518.176,203.265 518.907,199.865L518.907,199.864Z" style="fill:rgb(140,80,55);fill-rule:nonzero;"/>
                <path d="M473.972,184.229C474.766,183.689 475.624,183.498 476.546,183.689C477.499,183.88 478.262,184.388 478.802,185.214C479.343,186.009 479.501,186.867 479.279,187.789L478.548,191.348L489.639,191.348C489.13,191.062 488.717,190.68 488.431,190.14C488.018,189.346 487.923,188.488 488.145,187.566C488.368,186.708 488.844,186.073 489.575,185.628C490.338,185.151 491.164,185.024 492.054,185.214C492.976,185.437 493.643,185.945 494.12,186.708C494.596,187.503 494.724,188.361 494.501,189.282C494.279,190.14 493.738,190.808 492.944,191.252C492.88,191.284 492.817,191.316 492.785,191.348L509.723,191.348L510.963,185.532L511.821,181.306C499.649,171.931 494.501,159.982 496.408,145.459C488.876,163.255 477.341,171.867 461.801,171.295C457.002,171.105 451.409,170.12 445.085,168.372L447.945,154.612C445.308,160.173 441.367,163.478 436.123,164.558C434.884,164.813 433.613,164.94 432.246,164.94L422.395,164.368C421.442,164.177 420.457,164.082 419.408,164.082C418.868,164.05 418.359,164.082 417.819,164.145C414.514,164.463 411.622,165.829 409.175,168.276C406.347,171.105 404.948,174.473 404.948,178.446C404.948,182.418 406.347,185.786 409.175,188.583C410.16,189.568 411.209,190.363 412.321,190.998C412.512,191.125 412.702,191.252 412.925,191.348L441.24,191.348C441.272,191.221 441.335,191.094 441.399,190.966C441.621,190.553 441.844,190.14 442.066,189.727L445.593,191.348L471.43,191.348L472.447,186.422C472.637,185.469 473.146,184.738 473.972,184.229ZM462.055,179.081C462.945,179.367 463.612,179.876 464.089,180.67C464.565,181.433 464.693,182.291 464.47,183.212C464.248,184.07 463.739,184.706 462.945,185.151C462.15,185.628 461.292,185.755 460.402,185.5C459.513,185.31 458.845,184.801 458.432,183.975C457.955,183.212 457.828,182.354 458.051,181.433C458.273,180.575 458.75,179.939 459.513,179.526C460.307,179.049 461.133,178.922 462.055,179.081ZM424.969,176.412C425.192,177.016 425.287,177.651 425.287,178.318C425.287,179.844 424.747,181.147 423.634,182.195C423.475,182.354 423.348,182.482 423.189,182.609C422.204,183.435 421.06,183.848 419.757,183.848C418.2,183.848 416.897,183.308 415.817,182.195C414.736,181.147 414.196,179.844 414.196,178.318C414.196,176.793 414.736,175.49 415.817,174.41C416.897,173.361 418.2,172.821 419.757,172.821C421.251,172.821 422.554,173.361 423.634,174.41C424.238,175.013 424.683,175.681 424.969,176.412Z" style="fill:rgb(194,131,98);fill-rule:nonzero;"/>
                <path d="M439.746,197.036C439.937,195.098 440.445,193.223 441.24,191.348L412.925,191.348C414.069,191.92 415.308,192.333 416.611,192.555L416.421,193.445C416.135,195.066 415.976,196.687 415.976,198.276C415.944,200.977 416.262,203.646 416.993,206.252L416.993,206.284C417.024,206.379 417.056,206.474 417.088,206.602L421.728,216.135C421.887,216.358 422.045,216.58 422.204,216.834C422.363,217.025 422.522,217.247 422.681,217.47C422.745,217.565 422.808,217.629 422.872,217.724C422.903,217.724 422.903,217.724 422.935,217.756C423.221,218.137 423.539,218.519 423.857,218.9C424.016,219.091 424.175,219.281 424.334,219.472C424.62,219.79 424.937,220.108 425.223,220.457C425.446,220.743 425.7,221.029 425.954,221.315C427.702,223.19 429.609,224.874 431.643,226.368C432.056,226.686 432.501,227.004 432.945,227.29C433.104,227.417 433.295,227.544 433.454,227.639C433.676,227.798 433.899,227.925 434.121,228.084C434.153,227.989 434.217,227.925 434.28,227.83C434.248,227.925 434.248,228.052 434.217,228.148C435.265,228.815 436.346,229.419 437.458,230.023C437.681,230.118 437.871,230.245 438.094,230.34C438.793,230.69 439.524,231.04 440.286,231.389C440.445,231.484 440.636,231.548 440.827,231.643C441.081,231.739 441.335,231.866 441.589,231.961C442.829,232.438 444.068,232.883 445.371,233.296C447.214,233.868 449.121,234.376 451.091,234.789L457.542,236.092C457.574,236.092 457.638,236.092 457.669,236.124C457.701,236.124 457.765,236.124 457.796,236.156C458.972,236.378 459.926,236.601 460.625,236.76L460.657,236.76C463.421,237.046 465.837,237.173 467.934,237.205C468.601,237.205 469.3,237.205 470,237.173C470.413,237.141 470.794,237.141 471.207,237.109C471.525,237.078 471.843,237.078 472.192,237.046C472.224,237.014 472.256,237.014 472.288,237.046C473.368,236.95 474.449,236.792 475.529,236.633C475.847,236.569 476.165,236.505 476.482,236.474L476.514,236.315L476.546,236.315C476.768,236.251 477.023,236.188 477.277,236.156C479.883,235.52 482.425,234.662 484.904,233.614C485.825,233.201 486.715,232.787 487.637,232.342C487.669,232.311 487.732,232.311 487.796,232.279C488.654,231.834 489.48,231.357 490.274,230.881C492.467,229.578 494.469,228.148 496.217,226.591C496.281,226.527 496.344,226.463 496.439,226.368C496.853,225.987 497.234,225.605 497.647,225.224C500.316,222.523 502.382,219.504 503.844,216.135C504.416,214.801 504.893,213.402 505.306,211.972C505.465,211.305 505.624,210.542 505.751,209.748L509.723,191.348L492.785,191.348C492.054,191.761 491.26,191.825 490.402,191.602C490.116,191.539 489.861,191.443 489.639,191.348L478.548,191.348L478.103,193.604C477.912,194.526 477.436,195.257 476.641,195.797C475.815,196.337 474.925,196.496 473.972,196.305C473.05,196.083 472.319,195.606 471.811,194.812C471.271,194.017 471.08,193.127 471.271,192.206L471.43,191.348L445.593,191.348L481.631,207.746C481.44,208.191 481.249,208.635 481.027,209.112C480.105,211.114 478.961,212.862 477.563,214.387C475.37,216.707 472.605,218.423 469.269,219.536C468.093,219.917 466.949,220.203 465.773,220.425C461.387,221.188 457.034,220.584 452.68,218.614C448.962,216.93 445.975,214.546 443.782,211.527C443.655,211.305 443.528,211.114 443.432,210.924C442.574,209.652 441.812,208.286 441.208,206.792C440.509,205.045 440.032,203.297 439.778,201.612C439.587,200.055 439.587,198.53 439.746,197.036Z" style="fill:rgb(194,131,98);fill-rule:nonzero;"/>
                <path d="M494.501,189.282C494.724,188.361 494.596,187.503 494.12,186.708C493.643,185.945 492.976,185.437 492.054,185.214C491.164,185.024 490.338,185.151 489.575,185.628C488.844,186.073 488.368,186.708 488.145,187.566C487.923,188.488 488.018,189.346 488.431,190.14C488.844,190.935 489.512,191.411 490.402,191.602C491.323,191.856 492.149,191.729 492.944,191.252C493.738,190.808 494.279,190.14 494.501,189.282Z" style="fill-rule:nonzero;"/>
                <path d="M481.027,209.112C481.249,208.635 481.44,208.191 481.631,207.746L442.066,189.727C441.844,190.14 441.621,190.553 441.399,190.966C440.477,192.969 439.937,194.971 439.746,197.036C439.587,198.53 439.587,200.055 439.778,201.612C440.032,203.297 440.509,205.044 441.208,206.792C441.812,208.286 442.574,209.652 443.432,210.924C443.528,211.114 443.655,211.305 443.782,211.527C445.975,214.546 448.962,216.93 452.68,218.614C457.034,220.584 461.388,221.188 465.773,220.425C466.949,220.203 468.093,219.917 469.269,219.536C472.605,218.423 475.37,216.707 477.563,214.388C478.961,212.862 480.105,211.114 481.027,209.112Z" style="fill:white;fill-rule:nonzero;"/>
                <path d="M423.634,174.41C422.554,173.361 421.251,172.821 419.757,172.821C418.2,172.821 416.897,173.361 415.817,174.41C414.736,175.49 414.196,176.793 414.196,178.318C414.196,179.844 414.736,181.147 415.817,182.195C416.897,183.308 418.2,183.848 419.757,183.848C421.06,183.848 422.204,183.435 423.189,182.609C423.348,182.482 423.475,182.354 423.634,182.195C424.747,181.147 425.287,179.844 425.287,178.318C425.287,177.651 425.191,177.016 424.969,176.412C424.683,175.681 424.238,175.013 423.634,174.41Z" style="fill:rgb(140,80,55);fill-rule:nonzero;"/>
                <path d="M478.802,185.214C478.262,184.388 477.499,183.88 476.546,183.689C475.624,183.498 474.766,183.689 473.972,184.229C473.146,184.738 472.637,185.469 472.447,186.422L471.271,192.206C471.08,193.127 471.271,194.017 471.811,194.812C472.319,195.606 473.05,196.083 473.972,196.305C474.925,196.496 475.815,196.337 476.641,195.797C477.436,195.257 477.913,194.526 478.103,193.604L479.279,187.789C479.501,186.867 479.343,186.009 478.802,185.214Z" style="fill:rgb(140,80,55);fill-rule:nonzero;"/>
                <path d="M462.055,179.081C461.133,178.922 460.307,179.049 459.513,179.526C458.75,179.939 458.273,180.575 458.051,181.433C457.828,182.354 457.955,183.212 458.432,183.975C458.845,184.801 459.513,185.31 460.402,185.5C461.292,185.755 462.15,185.628 462.945,185.151C463.739,184.706 464.248,184.07 464.47,183.212C464.693,182.291 464.565,181.433 464.089,180.67C463.612,179.876 462.945,179.367 462.055,179.081Z" style="fill-rule:nonzero;"/>
                <path d="M421.315,146.73C421.473,145.999 421.601,145.3 421.759,144.601C417.342,143.775 413.179,144.506 409.207,146.794C404.758,149.368 401.866,153.118 400.531,158.107L377.46,244.228C388.169,244.355 396.75,241.558 403.137,235.838C406.092,233.169 408.571,229.864 410.637,225.955C412.289,222.745 413.656,219.154 414.705,215.118L416.993,206.284L416.993,206.252C416.262,203.646 415.944,200.977 415.976,198.276C415.976,196.687 416.135,195.066 416.421,193.445L416.611,192.555C415.054,192.269 413.624,191.761 412.321,190.998C411.209,190.363 410.16,189.568 409.175,188.583C406.347,185.787 404.948,182.418 404.948,178.446C404.948,174.473 406.347,171.105 409.175,168.276C411.622,165.829 414.514,164.463 417.819,164.145L420.901,149.019L420.838,149.019L421.187,147.334C421.219,147.112 421.283,146.921 421.314,146.73L421.315,146.73Z" style="fill:rgb(57,18,2);fill-rule:nonzero;"/>
                <path d="M434.217,228.148C434.248,228.052 434.248,227.925 434.28,227.83C434.217,227.925 434.153,227.989 434.121,228.084C430.117,233.582 427.766,238.158 427.035,241.781C427.003,241.971 426.971,242.162 426.939,242.353C426.717,243.529 426.622,244.768 426.622,246.071L426.622,267.649C429.323,264.09 431.833,262.787 434.185,263.772C435.52,264.312 436.791,265.583 438.03,267.585L438.062,267.649L438.062,244.228L438.062,243.211C438.03,238.094 438.062,233.804 438.094,230.34C437.871,230.245 437.68,230.118 437.458,230.023C436.346,229.419 435.265,228.815 434.217,228.148ZM434.344,233.264L434.248,233.518L434.248,233.232L434.344,233.264ZM434.248,250.139L434.185,250.139C434.185,250.139 434.217,250.139 434.248,250.139Z" style="fill:rgb(31,88,48);fill-rule:nonzero;"/>
                <path d="M434.185,250.139L434.248,250.139C434.217,250.139 434.185,250.139 434.185,250.139Z" style="fill:rgb(44,130,69);fill-rule:nonzero;"/>
                <path d="M441.589,231.961C441.335,231.866 441.081,231.739 440.827,231.643C440.636,231.548 440.445,231.484 440.286,231.389C439.524,231.039 438.793,230.69 438.094,230.34C438.062,233.804 438.03,238.094 438.062,243.211L438.062,244.228C438.221,244.418 438.38,244.609 438.539,244.832C440.795,247.596 443.846,249.344 447.691,250.139C451.504,250.933 455,250.488 458.21,248.836C458.527,248.677 459.322,248.327 460.625,247.851L460.625,240.478L460.657,240.478L460.657,236.76L460.625,236.76C459.926,236.601 458.972,236.378 457.796,236.156C457.765,236.124 457.701,236.124 457.669,236.124C457.638,236.092 457.574,236.092 457.542,236.092L451.091,234.789C449.121,234.376 447.214,233.868 445.371,233.296C444.068,232.883 442.829,232.438 441.589,231.961Z" style="fill:rgb(140,80,55);fill-rule:nonzero;"/>
                <path d="M471.207,237.109C470.794,237.141 470.413,237.141 470,237.173C469.3,237.205 468.601,237.205 467.934,237.205C465.837,237.173 463.421,237.046 460.657,236.76L460.657,240.478L460.625,240.478L460.625,264.757L460.657,264.693C461.896,262.691 463.167,261.42 464.534,260.88C466.726,259.958 469.11,261.07 471.652,264.217L471.652,271.144C473.845,272.098 475.847,273.496 477.658,275.307C481.504,279.153 483.442,283.824 483.442,289.258C483.442,289.481 483.442,289.671 483.442,289.894L493.325,289.894C493.293,289.671 493.293,289.481 493.293,289.258C493.293,283.824 495.2,279.153 499.045,275.307C499.903,274.449 500.793,273.718 501.715,273.051L485.635,273.051L485.635,260.975C485.921,251.728 481.376,245.086 471.97,241.082C471.938,240.541 471.875,240.001 471.779,239.461C471.652,238.73 471.461,237.936 471.207,237.109ZM464.534,247.247L464.47,247.247C464.502,247.247 464.502,247.247 464.534,247.247Z" style="fill:rgb(31,88,48);fill-rule:nonzero;"/>
                <path d="M464.47,247.247L464.534,247.247C464.502,247.247 464.502,247.247 464.47,247.247Z" style="fill:rgb(44,130,69);fill-rule:nonzero;"/>
                <path d="M460.625,247.85C459.322,248.327 458.527,248.677 458.21,248.836C455,250.488 451.504,250.933 447.691,250.139C443.846,249.344 440.795,247.596 438.539,244.831C438.38,244.609 438.221,244.418 438.062,244.228L438.062,267.649L438.03,267.585L438.03,289.894L444.068,289.894C444.036,289.671 444.036,289.481 444.036,289.258C444.036,283.824 445.943,279.153 449.788,275.307C452.521,272.606 456.144,270.7 460.656,269.587L460.656,264.693L460.625,264.757L460.625,247.851L460.625,247.85Z" style="fill:white;fill-rule:nonzero;"/>
                <path d="M471.652,264.217C469.11,261.07 466.726,259.958 464.534,260.88C463.167,261.42 461.896,262.691 460.657,264.693L460.657,269.587C461.133,269.555 462.15,269.555 463.739,269.555C466.599,269.555 469.237,270.096 471.652,271.144L471.652,264.217Z" style="fill:rgb(44,130,69);fill-rule:nonzero;"/>
                <path d="M449.788,275.307C445.943,279.153 444.036,283.824 444.036,289.258C444.036,289.481 444.036,289.671 444.068,289.894L483.442,289.894C483.442,289.671 483.442,289.481 483.442,289.258C483.442,283.824 481.503,279.153 477.658,275.307C475.847,273.496 473.845,272.098 471.652,271.144C469.237,270.096 466.599,269.555 463.739,269.555C462.15,269.555 461.133,269.555 460.657,269.587C456.144,270.7 452.521,272.606 449.788,275.307Z" style="fill:rgb(194,131,98);fill-rule:nonzero;"/>
                <path d="M444.068,289.894L438.03,289.894L438.03,267.585C436.791,265.583 435.52,264.312 434.185,263.772C431.833,262.786 429.323,264.089 426.622,267.649L426.622,246.071C426.622,244.768 426.717,243.529 426.939,242.353C426.971,242.162 427.003,241.971 427.035,241.781C410.319,245.372 401.898,260.562 401.739,287.352L401.739,301.016L525.04,301.016L525.04,289.894L493.325,289.894L483.442,289.894L444.068,289.894Z" style="fill:rgb(44,130,69);fill-rule:nonzero;"/>
                <path d="M532.699,289.894C532.699,289.671 532.699,289.481 532.699,289.258C532.699,283.824 530.761,279.153 526.915,275.307C526.312,274.704 525.676,274.132 525.04,273.655C524.786,273.432 524.532,273.242 524.278,273.051C522.117,271.526 519.765,270.509 517.191,269.969L512.329,269.587C508.357,269.682 504.829,270.858 501.715,273.051C500.793,273.718 499.903,274.449 499.045,275.307C495.2,279.153 493.293,283.824 493.293,289.258C493.293,289.481 493.293,289.671 493.325,289.894L532.699,289.894Z" style="fill:rgb(140,80,55);fill-rule:nonzero;"/>
                <path d="M545.619,192.209L537.198,192.209C535.775,192.506 534.47,192.98 533.284,193.751C530.378,195.53 528.125,198.732 526.523,203.358L508.021,281.518C507.843,282.171 507.962,282.823 508.258,283.416C508.555,284.068 509.029,284.484 509.563,284.661C509.622,284.721 509.682,284.721 509.741,284.721L510.275,284.721C510.453,284.661 510.69,284.602 510.927,284.484C511.046,284.543 511.164,284.602 511.342,284.662C511.401,284.721 511.461,284.721 511.52,284.721L512.054,284.721C512.35,284.662 512.587,284.543 512.884,284.365C513.418,284.069 513.833,283.594 514.011,282.942L532.572,204.366C535.122,196.42 539.511,192.387 545.619,192.209Z" style="fill:rgb(115,115,117);fill-rule:nonzero;"/>
                <path d="M621.229,192.209L545.619,192.209C539.511,192.387 535.122,196.42 532.572,204.366L514.011,282.942C513.833,283.594 513.418,284.068 512.884,284.365C512.587,284.543 512.35,284.661 512.054,284.721L605.929,284.721C606.819,284.721 607.649,284.899 608.42,285.314C608.42,285.077 608.42,284.839 608.479,284.602L628.642,199.563C629.116,194.878 626.626,192.446 621.229,192.209ZM581.141,231.645C579.658,232.891 577.879,233.543 575.804,233.543C573.728,233.543 571.949,232.891 570.466,231.645C568.984,230.341 568.213,228.739 568.213,226.901C568.213,225.063 568.984,223.58 570.466,222.335C571.949,221.03 573.728,220.378 575.804,220.378C577.879,220.378 579.658,221.03 581.141,222.335C582.623,223.58 583.335,225.063 583.335,226.901C583.335,228.739 582.623,230.341 581.141,231.645Z" style="fill:rgb(36,35,77);fill-rule:nonzero;"/>
                <path d="M575.804,233.543C577.879,233.543 579.658,232.891 581.141,231.645C582.623,230.341 583.335,228.739 583.335,226.901C583.335,225.063 582.623,223.58 581.141,222.335C579.658,221.03 577.879,220.378 575.804,220.378C573.728,220.378 571.949,221.03 570.466,222.335C568.984,223.58 568.213,225.063 568.213,226.901C568.213,228.739 568.984,230.341 570.466,231.645C571.949,232.891 573.728,233.543 575.804,233.543Z" style="fill:rgb(204,204,204);fill-rule:nonzero;"/>
                <path d="M610.911,299.072C612.275,297.471 612.927,295.514 612.927,293.201L612.927,293.082C612.986,291.007 612.393,289.168 611.266,287.686C611.148,287.508 611.029,287.33 610.911,287.152C610.14,286.263 609.31,285.67 608.42,285.314C607.649,284.899 606.819,284.721 605.929,284.721L512.054,284.721L511.52,284.721L510.275,284.721L509.741,284.721L505.353,284.721C504.76,284.721 504.167,284.721 503.633,284.78C505.175,285.017 506.539,285.788 507.725,287.152C509.089,288.753 509.741,290.77 509.741,293.082L509.741,293.201C509.741,295.514 509.089,297.471 507.725,299.072C506.717,300.199 505.59,300.91 504.344,301.266L607.53,301.266C608.776,300.97 609.903,300.199 610.911,299.072Z" style="fill:rgb(22,15,66);fill-rule:nonzero;"/>
                <path d="M425.591,284.721C423.634,284.721 421.974,285.551 420.61,287.152C419.246,288.753 418.593,290.77 418.593,293.082L418.593,293.201C418.593,295.514 419.246,297.471 420.61,299.072C421.618,300.199 422.744,300.97 423.99,301.266L504.344,301.266C505.59,300.91 506.717,300.199 507.725,299.072C509.089,297.471 509.741,295.514 509.741,293.201L509.741,293.082C509.741,290.77 509.089,288.753 507.725,287.152C506.539,285.788 505.175,285.017 503.633,284.78C503.336,284.721 503.099,284.721 502.803,284.721C502.743,284.721 502.743,284.721 502.684,284.721L425.591,284.721Z" style="fill:rgb(115,115,117);fill-rule:nonzero;"/>
                <path d="M510.275,284.721L511.52,284.721C511.461,284.721 511.401,284.721 511.342,284.661C511.164,284.602 511.046,284.543 510.927,284.484C510.69,284.602 510.453,284.662 510.275,284.721Z" style="fill:rgb(36,35,77);fill-rule:nonzero;"/>
            </g>
        </g>
    </g>
</svg>
