<?xml version="1.0" encoding="UTF-8" standalone="no"?>
<svg width="32px" height="39px" viewBox="0 0 32 39" version="1.1" xmlns="http://www.w3.org/2000/svg" xmlns:xlink="http://www.w3.org/1999/xlink">
    <!-- Generator: Sketch 44.1 (41455) - http://www.bohemiancoding.com/sketch -->
    <title>MapPin2/default</title>
    <desc>Created with Sketch.</desc>
    <defs></defs>
    <g id="-Symbols" stroke="none" stroke-width="1" fill="none" fill-rule="evenodd">
        <g id="MapPin2/default">
            <g id="Group-2">
                <path d="M22.3015716,30.7112708 L16,38.5882353 L9.69842839,30.7112708 C3.99501517,28.2650111 0,22.5990484 0,16 C0,7.163444 7.163444,0 16,0 C24.836556,0 32,7.163444 32,16 C32,22.5990484 28.0049848,28.2650111 22.3015716,30.7112708 Z" id="Combined-Shape" fill="#0093D5"></path>
                <circle id="Oval" fill="#FFFFFF" cx="16" cy="16" r="12.2352941"></circle>
                <g id="coderdojo-roundel-light-bg" transform="translate(6.000000, 6.000000)">
                    <circle id="circle13" fill="#FEFEFE" cx="9.95875803" cy="9.99993265" r="9.80629518"></circle>
                    <path d="M9.99993265,0 C15.5228099,0 19.9998653,4.47705536 19.9998653,9.99993265 C19.9998653,15.5228099 15.5228099,19.9998653 9.99993265,19.9998653 C4.47705536,19.9998653 0,15.5228099 0,9.99993265 C0,4.47705536 4.47705536,0 9.99993265,0 Z M9.8989044,0.51730277 C9.85213192,0.51730277 9.80535966,0.518238067 9.7585874,0.519173589 C4.58744556,0.59400925 0.414417853,4.81287392 0.414417853,10.0008538 C0.414417853,15.1953893 4.59680751,19.4170677 9.77636837,19.482534 C7.21512281,19.4179882 5.15713259,17.3188458 5.15713259,14.7426256 C5.15713259,12.1252532 7.28153204,10.0008538 9.8989044,10.0008538 C12.5162768,10.0008538 14.6406762,7.87645436 14.6406762,5.25908199 C14.6406762,2.64170962 12.5162768,0.517310179 9.8989044,0.517310179 L9.8989044,0.51730277 Z" id="path15" fill="#000000"></path>
                    <path d="M8.40218221,6.19172915 L8.40218221,2.65668358 C8.40218221,2.50233487 8.45830901,2.36856675 8.57149814,2.25631314 C8.68375174,2.14405954 8.81751987,2.08699722 8.97280477,2.08699722 L10.815634,2.08699722 C10.9681119,2.08699722 11.1000106,2.14312402 11.211328,2.25631314 C11.322646,2.36856675 11.3778375,2.50233487 11.3778375,2.65668358 L11.3778375,6.19172915 C11.3778375,6.3488842 11.3217107,6.48265233 11.211328,6.59397198 C11.1000099,6.70529029 10.9653062,6.76048157 10.8081512,6.76048157 L8.97280477,6.76048157 C8.81377868,6.76048157 8.67813906,6.70529029 8.5677556,6.59397198 C8.45737282,6.4826539 8.40311706,6.3488842 8.40311706,6.19172915 L8.40218154,6.19172915 L8.40218221,6.19172915 Z M10.7941269,6.17019891 L10.7941269,2.68566746 L8.99339275,2.68566746 L8.99339275,6.17019891 L10.7941269,6.17019891 Z" id="path17" fill="#000000"></path>
                    <path d="M9.07570383,16.8782722 L9.98308787,16.8782722 L9.98308787,13.3937407 L9.09067173,13.3937407 C9.00835234,13.3937407 8.93912936,13.364742 8.88113152,13.3076797 C8.8231339,13.2506174 8.7950705,13.1804589 8.7950705,13.0981397 C8.7950705,13.0167559 8.82406942,12.9465974 8.88113152,12.889535 C8.93819384,12.8324727 9.00835234,12.803474 9.09067173,12.803474 L10.5742894,12.803474 L10.5742894,16.8792228 L11.165491,16.8792228 L11.165491,15.6491096 C11.165491,15.5695966 11.1944899,15.5003736 11.2515522,15.4414404 C11.3086143,15.3825073 11.3787728,15.3535084 11.4601567,15.3535084 C11.5424761,15.3535084 11.6126346,15.3825073 11.6696969,15.4395694 C11.726759,15.4975672 11.7557579,15.5667902 11.7557579,15.6491096 L11.7557579,17.1748224 C11.7557579,17.2571418 11.726759,17.3273003 11.6696969,17.3852979 C11.6126346,17.4423602 11.5434116,17.4704236 11.4601567,17.4704236 L9.07571057,17.4704236 C8.99339118,17.4704236 8.9241682,17.4404892 8.86710588,17.3815561 C8.80910826,17.3216876 8.78104486,17.2505936 8.78104486,17.1682742 C8.78104486,17.0887614 8.81004378,17.0204737 8.86710588,16.9634114 C8.9241682,16.9072846 8.9943267,16.8792212 9.07571057,16.8792212 L9.07571057,16.8782859 L9.07570383,16.8782722 Z" id="path19" fill="#FFFFFF"></path>
                </g>
            </g>
        </g>
    </g>
</svg>